<svg xmlns="http://www.w3.org/2000/svg" viewBox="0 0 709.2 240.36"><defs><style>.cls-1{fill:#754c28;}.cls-2{fill:#8bc53f;}.cls-3{fill:#00adee;}.cls-4,.cls-5,.cls-6,.cls-7,.cls-8{fill:none;}.cls-4,.cls-5,.cls-6{stroke:#00adee;}.cls-4,.cls-5,.cls-6,.cls-7,.cls-8,.cls-9{stroke-miterlimit:10;}.cls-4,.cls-8{stroke-width:24.11px;}.cls-5{stroke-width:8.04px;}.cls-6{stroke-width:7.56px;}.cls-7,.cls-8,.cls-9{stroke:#8bc53f;}.cls-7{stroke-width:9px;}.cls-9{fill:#fff;stroke-width:8.15px;}</style></defs><g id="Layer_2" data-name="Layer 2"><g id="Layer_1-2" data-name="Layer 1"><path class="cls-1" d="M313.42,102.17l-.11,7.12-20.22-.3-.2,13.35,15.93.24-.1,6.89-15.93-.24-.2,13.62,20.22.3-.11,7.16-28.77-.43.72-48.14,28.77.43Z"/><path class="cls-1" d="M351.58,139.54a1.54,1.54,0,0,1,1.19.58l3.29,3.88a18.61,18.61,0,0,1-6.91,5.46,22.52,22.52,0,0,1-9.76,1.79,22,22,0,0,1-9.11-2,20.11,20.11,0,0,1-6.85-5.2,22.71,22.71,0,0,1-4.29-7.86,30.39,30.39,0,0,1-1.38-9.91,27.83,27.83,0,0,1,1.85-9.91,22.93,22.93,0,0,1,4.91-7.7,21.69,21.69,0,0,1,7.47-5,24.25,24.25,0,0,1,9.54-1.67,21.45,21.45,0,0,1,8.86,1.85,20.72,20.72,0,0,1,6.45,4.64l-2.9,4.12a2.69,2.69,0,0,1-.66.69,1.72,1.72,0,0,1-1.09.28,2.33,2.33,0,0,1-1.47-.62,18.28,18.28,0,0,0-1.9-1.33,15.31,15.31,0,0,0-2.93-1.34,14.42,14.42,0,0,0-4.52-.67,14.63,14.63,0,0,0-5.93,1.09,13.26,13.26,0,0,0-4.69,3.31,15.73,15.73,0,0,0-3.11,5.3,21.26,21.26,0,0,0-1.19,7.06,22.27,22.27,0,0,0,1,7.24,16,16,0,0,0,2.87,5.37,12.64,12.64,0,0,0,4.33,3.38,13,13,0,0,0,5.41,1.23,21.88,21.88,0,0,0,3.14-.15,13.39,13.39,0,0,0,2.6-.59,11.73,11.73,0,0,0,2.26-1.08,13.4,13.4,0,0,0,2.12-1.65,2.91,2.91,0,0,1,.67-.47,1.63,1.63,0,0,1,.76-.17Z"/><path class="cls-1" d="M406.47,127.64a27.93,27.93,0,0,1-1.82,9.78,23.36,23.36,0,0,1-4.82,7.74,21.37,21.37,0,0,1-7.36,5,25,25,0,0,1-18.88-.28,21.36,21.36,0,0,1-7.24-5.25,23.22,23.22,0,0,1-4.6-7.88,29.54,29.54,0,0,1,.29-19.61,23.38,23.38,0,0,1,4.83-7.74,21.32,21.32,0,0,1,7.4-5,25,25,0,0,1,18.89.29,21.75,21.75,0,0,1,7.21,5.25,23.25,23.25,0,0,1,4.58,7.86,28,28,0,0,1,1.53,9.83Zm-8.7-.13a23.54,23.54,0,0,0-.89-7.12A15.3,15.3,0,0,0,394.1,115a12.3,12.3,0,0,0-4.48-3.43,14.86,14.86,0,0,0-6-1.25,15,15,0,0,0-6,1.08,12.45,12.45,0,0,0-4.61,3.3,15.48,15.48,0,0,0-3,5.3,25.5,25.5,0,0,0-.22,14.21,15.08,15.08,0,0,0,2.81,5.37,12.6,12.6,0,0,0,4.51,3.42,16.14,16.14,0,0,0,12,.17,12.41,12.41,0,0,0,4.58-3.28,15.12,15.12,0,0,0,2.93-5.29,23.7,23.7,0,0,0,1.1-7.09Z"/><path class="cls-1" d="M434.54,152.13,426,152l.72-48.14,8.52.13Z"/><path class="cls-1" d="M469,134.88c.29.77.58,1.55.86,2.33.31-.8.62-1.58.95-2.35s.67-1.51,1-2.22l13.9-26.47a3.73,3.73,0,0,1,.53-.79,1.46,1.46,0,0,1,.61-.42,2.77,2.77,0,0,1,.74-.16c.27,0,.6,0,1,0l6.4.1L494.24,153l-7.48-.11.46-31.1c0-.58,0-1.21.08-1.9s.1-1.38.17-2.09l-14.19,27.1a3.82,3.82,0,0,1-1.25,1.43,3,3,0,0,1-1.77.49l-1.17,0a3,3,0,0,1-1.76-.54,3.82,3.82,0,0,1-1.21-1.46l-13.57-27.61c.07.73.12,1.45.14,2.15s0,1.35,0,2l-.46,31.1-7.48-.11.72-48.14,6.4.09a9.11,9.11,0,0,1,1,0,2.77,2.77,0,0,1,.74.18,1.78,1.78,0,0,1,.61.44,3.06,3.06,0,0,1,.52.81L468,132.67c.35.72.67,1.46,1,2.23Z"/><path class="cls-1" d="M512.49,136.34l-.25,16.95-8.49-.13.72-48.14,14.86.22a24.55,24.55,0,0,1,7.9,1.25,15,15,0,0,1,5.47,3.25,12.5,12.5,0,0,1,3.15,4.91,19,19,0,0,1-.25,12.6,13.47,13.47,0,0,1-3.39,5,15.09,15.09,0,0,1-5.57,3.18,23.6,23.6,0,0,1-7.78,1.05l-6.37-.1Zm.11-7,6.37.1a12.33,12.33,0,0,0,4.08-.55,7.54,7.54,0,0,0,2.9-1.72,7.19,7.19,0,0,0,1.74-2.77,11.11,11.11,0,0,0,.62-3.67,10,10,0,0,0-.52-3.5,6.94,6.94,0,0,0-1.66-2.69,7.5,7.5,0,0,0-2.85-1.72,12.57,12.57,0,0,0-4.06-.64l-6.37-.1-.26,17.28Z"/><path class="cls-1" d="M578.11,154.27l-6.56-.1a2.75,2.75,0,0,1-1.81-.61,3.22,3.22,0,0,1-1-1.46l-3.26-9.87-18.9-.28L543,151.72a3.13,3.13,0,0,1-1,1.38,2.68,2.68,0,0,1-1.82.61l-6.59-.1,18.64-47.88,8.68.13,17.2,48.41Zm-29.26-18.62,14.54.22-5.31-16.1c-.24-.71-.51-1.56-.8-2.53s-.57-2-.85-3.16c-.31,1.13-.62,2.18-.91,3.15s-.59,1.82-.87,2.55l-5.79,15.87Z"/><path class="cls-1" d="M612.73,143.43a1.54,1.54,0,0,1,1.19.58l3.29,3.88a18.61,18.61,0,0,1-6.91,5.46,22.49,22.49,0,0,1-9.76,1.79,22,22,0,0,1-9.11-2,20,20,0,0,1-6.85-5.2,22.62,22.62,0,0,1-4.29-7.86,30.39,30.39,0,0,1-1.38-9.91,27.83,27.83,0,0,1,1.85-9.91,22.93,22.93,0,0,1,4.91-7.7,21.69,21.69,0,0,1,7.47-5,24.25,24.25,0,0,1,9.54-1.67,21.45,21.45,0,0,1,8.86,1.85,20.72,20.72,0,0,1,6.45,4.64l-2.9,4.12a2.69,2.69,0,0,1-.66.69,1.72,1.72,0,0,1-1.09.28,2.33,2.33,0,0,1-1.47-.62,17.49,17.49,0,0,0-1.91-1.33,15.61,15.61,0,0,0-2.93-1.34,14.42,14.42,0,0,0-4.52-.67,14.6,14.6,0,0,0-5.93,1.09,13.26,13.26,0,0,0-4.69,3.31,15.73,15.73,0,0,0-3.11,5.3,21.26,21.26,0,0,0-1.19,7.06,22.27,22.27,0,0,0,1,7.24,16,16,0,0,0,2.87,5.37,12.68,12.68,0,0,0,4.34,3.38,13,13,0,0,0,5.41,1.23,21.88,21.88,0,0,0,3.14-.15,13.39,13.39,0,0,0,2.6-.59,12,12,0,0,0,2.26-1.08,13.4,13.4,0,0,0,2.12-1.65,2.91,2.91,0,0,1,.67-.47,1.52,1.52,0,0,1,.76-.17Z"/><path class="cls-1" d="M656.37,107.28l-.11,7.36-13.72-.2-.61,40.79-8.49-.13.61-40.79-13.79-.21.11-7.36,36,.54Z"/><path class="cls-2" d="M652.63,97.3c-3.56-5.18,4.61-19.88,15.23-27.56,16.7-12.06,37.38-5.22,41.34-3.83C704.85,73,696,85.11,680.91,92.7c-8.19,4.12-24.53,10.06-28.29,4.59Z"/><path class="cls-3" d="M643.09,96.14c-2.69.24-6.14-6.44-6.47-12.49-.52-9.52,6.72-16.28,8.14-17.56A34.55,34.55,0,0,1,648,83.67c-.4,4.25-2,12.21-4.85,12.47Z"/><path class="cls-1" d="M663.53,112.92c-1.08-3.56,6-10.15,13.21-12.37,11.35-3.49,21.65,4.28,23.61,5.82A39.88,39.88,0,0,1,680,115.81C674.77,116.52,664.68,116.68,663.53,112.92Z"/><path class="cls-4" d="M237.58,180.25c-16.53,26-43.22,44.79-73.19,47.35"/><path class="cls-4" d="M162.48,13.73c33.37,3.82,62.31,25.68,77.6,54.83"/><line class="cls-4" x1="196.87" y1="24.15" x2="193.96" y2="219.87"/><path class="cls-5" d="M158.28,19.53l-10-6.28,11.14-5.19Z"/><path class="cls-5" d="M159.92,221.78q.68,5.82,1.34,11.64l-10.47-4.69Z"/><path class="cls-5" d="M234.42,174.05l9.69,6.2q-.26-5.81-.52-11.6Z"/><path class="cls-6" d="M237.7,73.87l9.53-5.06c-.06,2.54-.13,5.08-.19,7.62Z"/><path class="cls-7" d="M23.63,121.77C23.1,108.16,47,94,67.23,91.56c24-2.91,43.26,11.64,47.75,15a78.35,78.35,0,0,1,12.11,11.31c-4.06,6-18.37,25.54-42.76,30.08-27.77,5.18-60.09-10.69-60.7-26.2Z"/><path class="cls-7" d="M23.63,121.77l103.46-3.89"/><line class="cls-7" x1="87.48" y1="117.88" x2="98.67" y2="96.83"/><line class="cls-7" x1="87.48" y1="117.88" x2="102.06" y2="141.43"/><line class="cls-7" x1="74.49" y1="147.94" x2="49.97" y2="121.83"/><line class="cls-7" x1="70.82" y1="92.52" x2="51.88" y2="121.03"/><path class="cls-8" d="M115.46,227.27C55.5,223.36,9.91,172.5,12.13,115.69,14.2,63,57,17.9,112.36,12.86"/><path class="cls-9" d="M118.21,221.45l9.91,6.46-10.75,5.51Z"/><path class="cls-9" d="M115.55,6.56l10.78,4.86-9.78,7.1Z"/></g></g></svg>