<svg width="538" height="466" viewBox="0 0 538 466" fill="none" xmlns="http://www.w3.org/2000/svg">
<g clip-path="url(#clip0_612_628)">
<path d="M0 233L134.5 0.0391846H403.5L538 233L403.5 465.961H134.5L0 233Z" fill="white"/>
<g clip-path="url(#clip1_612_628)">
<path d="M197.136 283.975V200.622H201.664V213.691C202.178 213.074 202.693 212.456 203.104 211.839C206.912 204.018 214.835 199.078 223.48 199.181C233.77 198.873 242.105 202.68 247.045 211.839C253.425 223.364 253.837 237.256 248.074 249.193C243.443 259.484 232.124 264.526 220.084 262.674C212.469 262.057 205.574 257.529 201.972 250.737V283.975H197.136ZM201.664 230.156C202.075 234.169 202.178 237.153 202.693 239.932C204.442 251.046 211.028 257.735 221.421 258.867C231.403 260.513 241.179 254.853 244.781 245.386C248.794 235.816 248.486 225.011 243.958 215.646C240.15 207.208 231.197 202.268 222.039 203.503C213.395 204.121 206.191 210.192 203.928 218.528C202.898 222.335 202.178 226.245 201.664 230.156Z" fill="black"/>
<path d="M344.394 241.475C342.953 253.618 332.765 262.777 320.623 262.983C301.688 263.909 292.735 251.354 291.397 236.845C290.368 228.921 291.706 220.997 295.102 213.794C299.939 203.709 310.744 197.844 321.857 199.387C332.457 200.313 341.307 207.825 343.776 218.219C344.702 222.747 345.423 227.377 345.937 232.008H296.131C295.205 245.18 302.305 255.779 312.287 258.352C324.739 261.439 335.441 255.985 339.351 244.151C340.072 241.064 341.615 240.549 344.394 241.475ZM296.028 227.789H340.586C340.278 213.794 331.531 203.606 319.696 203.503C306.216 203.195 296.543 212.971 296.028 227.789Z" fill="black"/>
<path d="M353.552 241.784H357.874C358.183 248.37 362.196 254.133 368.164 256.808C375.676 260.204 384.218 259.896 391.524 256.191C395.537 254.442 398.007 250.325 397.698 245.9C397.904 241.681 395.331 237.771 391.318 236.433C386.482 234.684 381.439 233.655 376.5 232.111C371.457 230.67 366.415 228.818 361.578 226.657C353.758 222.85 353.243 207.825 362.093 203.092C371.354 197.844 382.674 197.638 392.141 202.68C397.904 205.87 401.094 212.25 400.065 218.733H396.463C396.463 218.528 396.155 218.425 396.155 218.219C395.64 206.282 385.658 202.577 374.853 203.606C371.663 204.018 368.473 204.944 365.592 206.385C360.755 208.854 358.8 214.823 361.27 219.66C362.299 221.821 364.151 223.467 366.312 224.29C371.046 226.04 375.985 227.172 380.822 228.509C384.732 229.641 388.745 230.259 392.553 231.597C398.007 233.346 401.814 238.388 402.123 244.151C403.049 250.428 399.859 256.603 394.199 259.484C383.909 265.247 367.032 263.806 359.417 256.397C355.713 252.486 353.552 247.238 353.552 241.784Z" fill="black"/>
<path d="M457.589 218.733H453.473C453.37 218.219 453.37 217.704 453.165 217.19C453.062 210.913 448.534 205.561 442.359 204.327C436.7 202.68 430.628 202.989 425.071 205.15C420.646 206.385 417.559 210.501 417.456 215.132C417.25 219.762 420.338 223.776 424.865 224.805C431.04 226.76 437.317 227.892 443.594 229.641C445.652 230.156 447.608 230.773 449.563 231.494C457.589 234.375 461.706 243.122 458.824 251.149C457.384 255.162 454.296 258.455 450.386 260.101C441.639 264.115 431.554 264.218 422.704 260.41C415.295 257.22 410.665 249.811 411.076 241.784H415.089C417.559 253.927 429.496 261.748 441.536 259.175C444.315 258.661 446.887 257.529 449.151 255.985C452.959 254.03 455.223 250.017 455.017 245.695C455.223 241.476 452.547 237.565 448.534 236.227C443.697 234.478 438.655 233.449 433.715 231.905C428.57 230.465 423.631 228.715 418.691 226.554C410.973 222.747 410.356 207.928 419.206 203.195C428.57 197.741 440.198 197.638 449.666 202.886C455.326 206.179 458.413 212.353 457.589 218.733Z" fill="black"/>
<path d="M189.624 261.439C186.331 262.674 182.523 261.233 180.877 258.146C175.834 250.634 170.277 243.431 165.029 236.124L162.765 233.037C156.385 241.578 150.108 249.708 144.345 258.146C142.802 261.13 139.2 262.571 136.01 261.439L159.781 229.538L137.656 200.725C140.949 199.593 144.654 200.828 146.403 203.812C151.549 211.324 157.208 218.528 162.868 226.04C168.528 218.528 174.188 211.324 179.436 203.812C180.979 200.828 184.581 199.49 187.668 200.725L179.127 212.147C175.32 217.19 171.512 222.335 167.499 227.275C166.264 228.406 166.161 230.362 167.293 231.597C167.396 231.699 167.396 231.802 167.499 231.802C174.805 241.681 182.111 251.457 189.624 261.439Z" fill="black"/>
<path d="M290.574 200.416V204.738C278.328 203.915 267.729 213.279 266.905 225.525C266.905 226.245 266.803 227.069 266.905 227.789V261.645H262.48V200.622H266.802V213.074C272.051 204.018 280.283 200.622 290.574 200.416Z" fill="black"/>
<path d="M79 229.127C79.6174 226.04 80.0291 222.644 80.9552 219.557C86.3063 200.622 107.916 192.801 122.838 204.532C131.585 211.427 133.746 221.1 133.334 232.111H84.1453C83.322 251.663 97.4201 263.497 115.531 257.426C121.5 255.265 125.925 250.325 127.469 244.151C128.395 241.064 129.938 240.549 132.923 241.475C131.996 249.091 127.571 255.779 120.985 259.69C109.975 265.658 96.391 264.012 87.3353 255.368C82.9104 250.428 80.3378 244.151 79.8232 237.565C79.7203 236.536 79.5145 235.507 79.2058 234.478C79 232.626 79 230.876 79 229.127ZM84.2482 227.789H128.806C128.498 213.588 119.545 203.503 107.608 203.503C94.23 203.298 84.7627 213.176 84.2482 227.789Z" fill="black"/>
</g>
</g>
<defs>
<clipPath id="clip0_612_628">
<rect width="538" height="466" fill="white"/>
</clipPath>
<clipPath id="clip1_612_628">
<rect width="380.751" height="85" fill="white" transform="translate(79 191)"/>
</clipPath>
</defs>
</svg>
