<svg xmlns="http://www.w3.org/2000/svg" viewBox="0 0 1166.27 1278.77"><defs><style>.cls-1,.cls-2{fill:#fff;}.cls-1{stroke:#1d1d1b;stroke-miterlimit:10;stroke-width:0.7px;}</style></defs><g id="Layer_2" data-name="Layer 2"><g id="Layer_1-2" data-name="Layer 1"><path class="cls-1" d="M864.85,201.74c16.47,15,21.09,29.5,22.67,37.15.08.36.19,1,.25,1.32a195.53,195.53,0,0,1,3.59,28,117.29,117.29,0,0,1-.54,19.88c-1,8.28-2.15,10.33-3.22,17.73-1.38,9.54-1,16.8-.54,23.64.66,11,1.39,23.2,7,37.07,5.66,14,13.53,22.93,19.88,30.08A141.3,141.3,0,0,0,944,422.94c12.86,8.29,21,10.38,25.5,20.2.78,1.68,4.11,8.93,1.36,15.8-2.11,5.28-6.7,7.49-12.35,10.74-14.74,8.46-27.48,15.77-32.77,27.4-1.1,2.41-5,10.93-1.73,18.78,3.55,8.58,12.47,8.76,15.24,17.46,2.46,7.7-2,15.34-2.42,16-7.84,12.9-28.43,12.17-28.29,16.56.09,2.68,7.77,2,12.2,8,4.66,6.27,3.23,16.55-.91,23.19-3.51,5.61-8.66,8.15-16.12,11.82-11.44,5.63-13.44,3-17.19,7-8.16,8.64-4.57,27.22.59,37.12h0c2.24,10.05.32,21.94-4.53,28.19-1.93,2.49-8.26,9.54-33.67,10.44-20.37.73-35.84-4.33-52.65-7.52-25-4.74-37.8-7.12-52.65-7.52-17.67-.47-29.82-.79-44.06,4.3-27.32,9.78-36.17,30.24-43,26.86s1.26-24.43,3.94-66.26a412.08,412.08,0,0,0-.71-60.53,388.28,388.28,0,0,0-8.6-56.95c-6.52-28.55-12.2-38.15-15.21-42.75-9.51-14.51-15.2-13.87-17-21.72-5.12-22,34.45-49.5,59.09-66.62,32.14-22.32,33.78-16.66,67.7-40.83,35.4-25.21,49.1-42.39,57.73-56.59,6.8-11.17,10.44-20.46,11.4-20.06,1.81.74-7.79,34.93-26.15,70.21C772.41,377,757.16,393.8,758.66,395c1.87,1.51,27.54-23,49.26-56.06,13.66-20.77,29.07-44.73,32.42-77.6,1.06-10.39.85-20.86,1.76-20.88,1.37,0,3.68,23.29,3.13,46.09a216.5,216.5,0,0,1-2.4,28.37c-4.44,28.55-12.26,43.68-10.75,44.38,2.26,1.05,25.7-29.93,35.14-71.44C875.58,251.1,869.75,219.68,864.85,201.74Z"/><path class="cls-1" d="M642.62,686.19c-1.32,43.7-9.12,82.14-24.72,159-6.12,30.2-12.18,55.92-18.26,55.63-7.6-.34-5.71-40.84-23.64-98.61-13.54-43.62-22.47-71.14-48.36-92.41-31.18-25.62-69.33-27.69-75.21-27.94-38.75-1.59-51.71,14.62-99.93,9.67-29.91-3.06-39.58-11-44.05-18.8-5.82-10.11-3.93-21.78-2.15-28.47,0,0,17.65-27.69,9.66-40.84-.82-1.34-1.13-1.23-23.63-12.89-5.73-3-8.64-4.51-10.77-7.41-4-5.48-5.54-14.17-2.12-20.53s9.72-6.39,9.67-9.67c-.1-5.43-17.34-4.72-23.65-16.11a20,20,0,0,1-1.07-16.12c3.39-9,11.8-7.92,16.66-16.12,5.27-8.9,2.41-22.05-2.69-30.09-2.15-3.38-10.24-9.14-25.79-21.48-5-4-9-7.21-10.74-12.9-.28-.9-1.94-6.43,0-11.82,1.67-4.65,5.52-7.8,9.86-10.09a88,88,0,0,1,12.7-5c.06,0,20.28-3.63,43-26.86a118.22,118.22,0,0,0,17.47-21.78,92.61,92.61,0,0,1-19.08-11.53c-11.55-9.06-20.83-20.84-19.34-22.57,1.24-1.43,9,5.12,25.25,12.36a169,169,0,0,0,20.46,7.56,107.9,107.9,0,0,0,5.46-16.57,115.36,115.36,0,0,0,3.09-29.14c-.19-9.61-1.81-17.2-2.15-39.75-.37-23.86,1.23-30.18,2.15-33.31,2.23-7.49,8-21.52,25.72-35.12-6.39,17.46-14.85,48.28-9.6,85.62,5.92,42.15,26.67,75,29,74.14,1.57-.57-4.95-16.31-7-45.13a219.3,219.3,0,0,1,0-28.47c1.37-22.77,5.63-45.82,7-45.67.91.1-.18,10.51,0,20.95.64,36.71,16.88,64.95,25.78,80.05,19.81,33.57,47.44,58.24,50.51,55.88,2.3-1.77-10.46-17.7-26.86-52.65-17.12-36.48-25.69-67-25.25-67.16.24-.09,2.94,9.42,9.66,20.95a117.75,117.75,0,0,0,24.18,29C471.78,348.89,527,378,551.28,397.15c36.92,29,52.19,65.25,67.69,102.08C646.29,564.08,644.63,619.22,642.62,686.19Z"/><circle class="cls-1" cx="463.17" cy="126.38" r="30.09"/><circle class="cls-1" cx="804.86" cy="86.62" r="30.09"/><circle class="cls-1" cx="555.89" cy="156.46" r="45.44"/><circle class="cls-1" cx="708.47" cy="122.08" r="45.44"/><circle class="cls-1" cx="567.01" cy="76.64" r="16.13"/><circle class="cls-1" cx="595.94" cy="120.26" r="16.13"/><circle class="cls-1" cx="760.68" cy="186.77" r="19.24"/><circle class="cls-1" cx="646.9" cy="180.43" r="16.13"/><circle class="cls-1" cx="669.02" cy="86.62" r="16.13"/><circle class="cls-1" cx="701.77" cy="40.41" r="11.4"/><circle class="cls-1" cx="630.77" cy="97.09" r="11.4"/><circle class="cls-1" cx="595.94" cy="122.78" r="11.4"/><circle class="cls-1" cx="770.37" cy="79.07" r="16.13"/><circle class="cls-1" cx="772.67" cy="80.1" r="11.4"/><circle class="cls-1" cx="578.41" cy="11.75" r="11.4"/><circle class="cls-1" cx="517.7" cy="88.29" r="9.73"/><circle class="cls-1" cx="745.49" cy="51.81" r="9.73"/><circle class="cls-1" cx="457.53" cy="249.62" r="9.73"/><circle class="cls-1" cx="630.61" cy="231.38" r="23.36"/><circle class="cls-1" cx="745.49" cy="238.94" r="24.44"/><circle class="cls-1" cx="567.13" cy="286.81" r="9.73"/><circle class="cls-1" cx="809.76" cy="214.49" r="9.73"/><circle class="cls-1" cx="697.3" cy="249.62" r="9.73"/><circle class="cls-1" cx="627.19" cy="233.49" r="16.13"/><circle class="cls-1" cx="506.48" cy="224.46" r="16.13"/><circle class="cls-1" cx="677.33" cy="345.31" r="24.44"/><circle class="cls-1" cx="588.15" cy="382.92" r="24.44"/><circle class="cls-1" cx="517.7" cy="273.45" r="24.44"/><circle class="cls-1" cx="671.78" cy="345.31" r="33.85"/><circle class="cls-1" cx="593.35" cy="381.26" r="33.85"/><path class="cls-2" d="M0,1278.44q2-4.67,11-24.47t23.47-51.59q14.47-31.77,32.62-72.22t38.44-85.71a60.9,60.9,0,0,0,2.16-6.16,25.5,25.5,0,0,0,1.17-7.49,9.05,9.05,0,0,0-2.16-6.15q-2.18-2.51-9.16-2.5-14,0-23.13,9.49a59.25,59.25,0,0,0-13.65,23.46,90.09,90.09,0,0,0-4.49,27.63c0,2.22,0,4.11.17,5.66s.27,3.11.5,4.66a12.67,12.67,0,0,1-10.16-4.5,28.54,28.54,0,0,1-5.65-11,43.55,43.55,0,0,1-1.83-11.82,40.11,40.11,0,0,1,6-21,71.81,71.81,0,0,1,15.47-18,74.41,74.41,0,0,1,21-12.48,61.36,61.36,0,0,1,22.47-4.49q11,0,18.47,6.15T134,1038.13q3.83,16,3.83,46.26,0,20.64-1.5,43.94t-3.16,45.93q-1.68,22.63-2.33,41.27A310.72,310.72,0,0,1,146,1172.26q9.81-23,21.63-45.76t23.47-42.77q11.64-20,21-34.62t13.65-21.3a89.38,89.38,0,0,1,8-10.15,11.43,11.43,0,0,1,8.66-3.5,30,30,0,0,1,10.65,2.33q-2.34,6-6.49,17.81T238,1063.09q-5.32,20.31-10.65,46.1t-9.82,52.42q-4.48,26.64-7.16,50.09a361.21,361.21,0,0,0-2.66,39.44,72.42,72.42,0,0,0,.67,11.32,39.11,39.11,0,0,0,1.83,7.16,78.48,78.48,0,0,1,2.49,8.82q-11.31,0-17.3-3.66t-8-11.82q-2-8.16-2-21.8,0-39.6,10.15-85t23.14-94.36a241.06,241.06,0,0,0-20.14,31.12q-10.48,18.81-21,40.61t-20,43.6q-9.48,21.79-16.81,40.44t-11.32,31a25.92,25.92,0,0,0-2.66,1,5.78,5.78,0,0,1-2.33.33q-9,0-11.81-10.65t-2.83-30q0-13.65.83-32.46T112.5,1138q1-20,1.83-38.45t.83-31.78q0-6.66-.16-11c-.12-2.89-.28-5.44-.5-7.66Q87.86,1111,69.9,1154.79t-30.13,71.06q-12.15,27.29-21.46,39.94T0,1278.44Z"/><path class="cls-2" d="M269.6,1252.81a12.88,12.88,0,0,1-7.49-2.17q-3.17-2.16-3.16-6.82a9.8,9.8,0,0,1,3-6.82,21.16,21.16,0,0,1,7.49-5,23.31,23.31,0,0,1,8.82-1.83,10.7,10.7,0,0,1,6.33,1.66q2.32,1.67,2.33,6.32a11,11,0,0,1-2.5,6.66,21.47,21.47,0,0,1-6.49,5.66A16.32,16.32,0,0,1,269.6,1252.81Z"/><path class="cls-2" d="M481.62,1278.44a89.47,89.47,0,0,1-33.95-6.49,59,59,0,0,1-25.8-19.81q-9.83-13.31-9.82-33.28,0-17.31,6.83-27a37.44,37.44,0,0,1,16.81-13.65,51.13,51.13,0,0,1,19-4,68.58,68.58,0,0,0-13.65,21.3,62.26,62.26,0,0,0-4.66,23.3,49.34,49.34,0,0,0,5.49,23A41.62,41.62,0,0,0,458.65,1259q11.31,6.48,28.63,6.49a81,81,0,0,0,29.29-5.5,56.81,56.81,0,0,0,23.46-16.3q9.15-10.82,9.15-26.8,0-14.31-7.32-24.63a76.14,76.14,0,0,0-18.8-18.31q-11.49-8-24.47-15.31a274.87,274.87,0,0,1-24.46-15.47,75.52,75.52,0,0,1-18.81-18.81Q448,1113.68,448,1098.7q0-14,6.66-29.29a104.89,104.89,0,0,1,19.14-29,98.31,98.31,0,0,1,29.95-22.14q17.47-8.49,39.11-8.48,19.64,0,27.29,9.48t7.66,23.8a89.77,89.77,0,0,1-4.16,25.79,183,183,0,0,1-10.15,26.3,234.56,234.56,0,0,1-11.32,21.13q-6-1.32-8.49-5.15a16.43,16.43,0,0,1-2.49-9.16,51.25,51.25,0,0,1,3-16q3-9,6.82-18.63t6.83-18.81a53.74,53.74,0,0,0,3-16.47q0-6.66-4-10.49t-14.65-3.83a59.09,59.09,0,0,0-29,7.33,84.69,84.69,0,0,0-23.3,18.8,93.65,93.65,0,0,0-15.48,24.13q-5.49,12.66-5.49,23a32.41,32.41,0,0,0,7.16,21.13,74.77,74.77,0,0,0,18.47,16q11.31,7.15,24.13,14.31a202.64,202.64,0,0,1,24.13,15.81,73.81,73.81,0,0,1,18.47,20.47q7.15,11.82,7.16,28.79,0,17.31-7.66,30.46a69.57,69.57,0,0,1-20.47,22.13,98.84,98.84,0,0,1-28.12,13.65A105,105,0,0,1,481.62,1278.44Z"/><path class="cls-2" d="M631.39,1278.44q-18.3,0-27.62-6.16t-9.32-20.47c0-.67.55-1,1.66-1a36.9,36.9,0,0,1,8.32,1.67q6,1.65,23,1.66a204.5,204.5,0,0,0,52.92-6.49q24.3-6.5,42.11-17.81t27.62-25.46q9.81-14.14,9.82-29.12,0-13.65-7.65-22t-20.14-12.65a119.68,119.68,0,0,0-27.13-5.82,284,284,0,0,0-29-1.5q-6.33,0-12.82.17t-12.15.16q-7.65,27-15,54.25t-15,52.93a21.24,21.24,0,0,1-14-4.66q-5.67-4.67-5.66-11.32a31.84,31.84,0,0,1,1.66-9.32q1.67-5.33,3-9.65,2-6.66,7-22.3T625.24,1147q7.15-21,15.81-43.94t17.8-44.93q9.15-22,17.81-38.94a94.31,94.31,0,0,0-23.46,6.65,115.11,115.11,0,0,0-14.82,7.82q-5.32,3.49-7.65,3.5a8.61,8.61,0,0,1-4.16-1.5,20.51,20.51,0,0,1-4.5-3.66c-1.33-1.44-2-2.72-2-3.83q16.63-7,34.78-12.65t44.1-5.65a179.79,179.79,0,0,1,24.3,1.83,89.65,89.65,0,0,1,25.29,7.32,49.38,49.38,0,0,1,19.64,16q7.65,10.49,7.66,27.8,0,16.31-7,27.79a59.85,59.85,0,0,1-18.31,19,100.87,100.87,0,0,1-24.63,11.82,167.92,167.92,0,0,1-26.29,6.32q24.63,1.33,39.77,7t23,13.48q7.82,7.83,10.48,16.48a56.35,56.35,0,0,1,2.67,16.64,63.58,63.58,0,0,1-10,35,99.15,99.15,0,0,1-26.29,27.29A173.14,173.14,0,0,1,703.62,1263a215.68,215.68,0,0,1-38.27,11.65A173.83,173.83,0,0,1,631.39,1278.44ZM653,1126a239.09,239.09,0,0,0,36.45-4.16,123.9,123.9,0,0,0,33.11-11.15,68,68,0,0,0,24.13-20q9.15-12.3,9.16-30.62,0-17.29-8.16-26.62a42.8,42.8,0,0,0-21-13,98.32,98.32,0,0,0-27.12-3.67h-3.16a16.39,16.39,0,0,0-3.17.34,405.92,405.92,0,0,0-21.8,51.25Q661.68,1096.37,653,1126Z"/><path class="cls-2" d="M796.15,1278.44q-7.32-4.34-9.32-9.16a22.19,22.19,0,0,1-2-8.15q0-9.33,6.83-25.3a383.72,383.72,0,0,1,18.3-36.44q11.49-20.48,25.47-42.44-12.33-1-21-1.33t-15-.33H787.83a22.61,22.61,0,0,1,12.81-13.48q9.15-3.82,21.8-3.83a106.38,106.38,0,0,1,11.65.66q6,.67,12.32,1.67,17-25.63,34.78-49.76t33.28-42.94q15.48-18.79,25.8-28.45,9.65-9.31,16-9.32a15.71,15.71,0,0,1,8.15,2.82,55.9,55.9,0,0,1,9.49,7.83q-3.33,2.67-8.49,14.14t-11,28.79q-5.83,17.31-11.49,37.95t-10.48,42.1q-4.83,21.46-7.66,40.77a237.14,237.14,0,0,0-2.83,34q0,12.66,2.83,19.64t9.49,7q8.65,0,19.64-12t24-37.28l3.33,3.33q-10,26.63-25.46,43.6t-32.12,17q-13.65,0-19.81-12.14t-6.15-32.46a200.94,200.94,0,0,1,1.49-23.29q1.5-12.64,4.17-26.3-14.66-2.32-26.8-3.83t-22.47-2.83q-15.64,29-30.45,59.58T796.15,1278.44Zm109.5-124.82q5-22,11.65-44.43t14.15-42.77q7.49-20.3,14.15-35.62-10.32,6.33-23.8,22.47a407.32,407.32,0,0,0-28.46,39.28q-15,23.13-30.62,50.75,11.31,2.34,22.47,5.16T905.65,1153.62Z"/><path class="cls-2" d="M971.22,1278.77q1.34-12.32,8.82-17.81t19.48-7.15a187.37,187.37,0,0,1,26-1.67,278.67,278.67,0,0,0,12-31.78q6-18.81,11.48-40.44t10.82-44.11q5.33-22.45,10-43.1t8.82-37.11q4.15-16.47,7.48-26.13-17.31.35-29.45,1t-22.64,2q-10.49,1.33-22.8,3.66,2.33-12.65,18.31-19.14t49.59-6.49q16.65,0,33.79,1.33t31.45,2.83q14.31,1.5,22,2.83-8,8-16.81,9.82a77.44,77.44,0,0,1-15.48,1.83h-19.47q-9.15,0-16.81.33-1.34,7-4,21.8t-6.32,34q-3.67,19.15-7.66,39.61t-7.82,38.94q-3.84,18.48-7.16,31.79-5.32,21.3-12,36t-16,21q17.31,1,37,3.49a337.81,337.81,0,0,0,35.28,2.83q-9.66,9.65-20.14,12a83.56,83.56,0,0,1-17.47,2.33q-13.32,0-26.13.17t-25.29.5q-12.5.33-24.63,1.49T971.22,1278.77Z"/></g></g></svg>