<svg xmlns="http://www.w3.org/2000/svg" viewBox="0 0 1043.25 1589.96"><defs><style>.cls-1,.cls-2{fill:#fff;}.cls-1{stroke:#1d1d1b;stroke-miterlimit:10;}.cls-2{font-size:244.48px;font-family:DancingScript-Regular, Dancing Script;}</style></defs><g id="Layer_2" data-name="Layer 2"><g id="Layer_1-2" data-name="Layer 1"><path class="cls-1" d="M890.06,287.62c23.49,21.44,30.08,42.06,32.33,53,.11.51.27,1.38.36,1.88,1.78,9.57,4.4,23.66,5.11,39.92a167.52,167.52,0,0,1-.76,28.34c-1.37,11.8-3.07,14.73-4.6,25.28-2,13.6-1.35,23.95-.76,33.7.94,15.69,2,33.07,10,52.85,8.08,20,19.3,32.69,28.34,42.89a201.79,201.79,0,0,0,42.9,37.54c18.34,11.82,29.91,14.8,36.35,28.79,1.11,2.4,5.87,12.74,2,22.53-3,7.53-9.56,10.69-17.62,15.32-21,12.06-39.17,22.48-46.72,39.06-1.57,3.43-7.1,15.58-2.46,26.78,5.06,12.22,17.77,12.49,21.73,24.89,3.5,11-2.91,21.87-3.46,22.77-11.17,18.38-40.53,17.34-40.32,23.6.12,3.83,11.07,2.85,17.39,11.36,6.64,8.95,4.6,23.61-1.31,33.07-5,8-12.34,11.61-23,16.85-16.3,8-19.15,4.28-24.51,10-11.63,12.32-6.51,38.8.85,52.91h0c3.19,14.32.46,31.27-6.46,40.19-2.75,3.55-11.78,13.6-48,14.89-29,1-51.1-6.18-75.06-10.73-35.64-6.76-53.89-10.16-75.06-10.72-25.19-.67-42.51-1.14-62.81,6.13-39,13.94-51.58,43.11-61.28,38.29s1.8-34.83,5.62-94.46a587.31,587.31,0,0,0-1-86.3A554.19,554.19,0,0,0,585.48,747c-9.3-40.71-17.4-54.4-21.69-61-13.56-20.7-21.67-19.78-24.27-31-7.29-31.4,49.13-70.58,84.26-95,45.82-31.82,48.15-23.76,96.51-58.21,50.47-35.95,70-60.45,82.31-80.68,9.69-15.93,14.88-29.18,16.25-28.61,2.58,1.06-11.11,49.8-37.28,100.1-23.3,44.76-45,68.75-42.9,70.47,2.66,2.14,39.26-32.86,70.23-79.94,19.48-29.61,41.45-63.76,46.23-110.63,1.51-14.81,1.2-29.74,2.51-29.77,2-.05,5.24,33.21,4.45,65.71A310.76,310.76,0,0,1,858.68,449c-6.34,40.7-17.48,62.27-15.33,63.27,3.23,1.49,36.64-42.67,50.1-101.85C905.37,358,897.06,313.2,890.06,287.62Z"/><path class="cls-1" d="M573.23,978.3c-1.88,62.3-13,117.11-35.24,226.73-8.73,43.06-17.36,79.72-26,79.31-10.83-.49-8.14-58.23-33.7-140.59-19.3-62.19-32-101.42-68.94-131.75-44.46-36.53-98.85-39.48-107.23-39.83C246.84,969.9,228.36,993,159.61,986c-42.64-4.37-56.43-15.73-62.81-26.81-8.29-14.41-5.59-31-3.06-40.59,0,0,25.17-39.47,13.78-58.22-1.17-1.92-1.62-1.76-33.7-18.38-8.17-4.23-12.32-6.43-15.35-10.56-5.74-7.82-7.9-20.21-3-29.27S69.31,793,69.23,788.34c-.14-7.75-24.72-6.73-33.71-23a28.48,28.48,0,0,1-1.53-23c4.84-12.81,16.82-11.29,23.75-23,7.52-12.69,3.44-31.44-3.83-42.9-3.07-4.82-14.6-13-36.77-30.63C10,640.18,4.35,635.6,1.82,627.49c-.4-1.28-2.76-9.17,0-16.85C4.2,604,9.7,599.52,15.88,596.26S28.9,591,34,589.2c.08,0,28.91-5.18,61.28-38.3,6.58-6.74,16-16.54,24.91-31A132.08,132.08,0,0,1,93,503.41C76.5,490.5,63.27,473.7,65.4,471.24c1.76-2,12.79,7.29,36,17.62a240.52,240.52,0,0,0,29.16,10.77A153.32,153.32,0,0,0,138.35,476a164.55,164.55,0,0,0,4.41-41.54c-.27-13.7-2.58-24.53-3.07-56.68-.52-34,1.75-43,3.07-47.49,3.17-10.68,11.46-30.68,36.67-50.07-9.12,24.9-21.17,68.84-13.69,122.07,8.44,60.1,38,106.92,41.36,105.7,2.23-.81-7.06-23.25-10-64.34a309.64,309.64,0,0,1,0-40.59c1.94-32.46,8-65.32,10-65.11,1.3.14-.26,15,0,29.87.91,52.33,24.06,92.59,36.76,114.13,28.24,47.85,67.63,83,72,79.66,3.28-2.52-14.91-25.23-38.29-75.06-24.41-52-36.63-95.51-36-95.75.35-.13,4.2,13.43,13.78,29.87,7.93,13.61,18.72,27.39,34.47,41.37C329.67,497.41,408.34,539,443,566.22c52.64,41.37,74.4,93,96.51,145.53C578.47,804.21,576.1,882.82,573.23,978.3Z"/><circle class="cls-1" cx="317.4" cy="180.18" r="42.89"/><circle class="cls-1" cx="804.55" cy="123.5" r="42.89"/><circle class="cls-1" cx="449.59" cy="223.07" r="64.78"/><circle class="cls-1" cx="667.12" cy="174.05" r="64.78"/><circle class="cls-1" cx="465.43" cy="109.27" r="22.99"/><circle class="cls-1" cx="506.68" cy="171.45" r="22.99"/><circle class="cls-1" cx="741.56" cy="266.27" r="27.44"/><circle class="cls-1" cx="579.34" cy="257.24" r="22.99"/><circle class="cls-1" cx="610.87" cy="123.5" r="22.99"/><circle class="cls-1" cx="657.57" cy="57.61" r="16.26"/><circle class="cls-1" cx="556.35" cy="138.43" r="16.26"/><circle class="cls-1" cx="506.68" cy="175.05" r="16.26"/><circle class="cls-1" cx="755.36" cy="112.73" r="22.99"/><circle class="cls-1" cx="758.65" cy="114.2" r="16.26"/><circle class="cls-1" cx="481.69" cy="16.76" r="16.26"/><circle class="cls-1" cx="395.14" cy="125.88" r="13.88"/><circle class="cls-1" cx="719.9" cy="73.87" r="13.88"/><circle class="cls-1" cx="309.35" cy="355.88" r="13.88"/><circle class="cls-1" cx="556.11" cy="329.88" r="33.31"/><circle class="cls-1" cx="719.9" cy="340.65" r="34.85"/><circle class="cls-1" cx="465.61" cy="408.9" r="13.88"/><circle class="cls-1" cx="811.53" cy="305.81" r="13.88"/><circle class="cls-1" cx="651.19" cy="355.88" r="13.88"/><circle class="cls-1" cx="551.24" cy="332.88" r="22.99"/><circle class="cls-1" cx="379.14" cy="320.01" r="22.99"/><circle class="cls-1" cx="622.72" cy="492.31" r="34.85"/><circle class="cls-1" cx="495.57" cy="545.93" r="34.85"/><circle class="cls-1" cx="395.14" cy="389.86" r="34.85"/><circle class="cls-1" cx="614.81" cy="492.31" r="48.26"/><circle class="cls-1" cx="502.98" cy="543.57" r="48.26"/><text class="cls-2" transform="translate(99.46 1520.53)">M. SBAI</text></g></g></svg>